<svg width="45" height="44" viewBox="0 0 45 44" fill="none" xmlns="http://www.w3.org/2000/svg">
<path d="M41.7073 8.72918C41.297 8.72918 40.9035 8.56785 40.6133 8.28068C40.3232 7.99352 40.1602 7.60404 40.1602 7.19793C40.1602 6.79181 40.3232 6.40233 40.6133 6.11517C40.9035 5.828 41.297 5.66668 41.7073 5.66668C42.1176 5.66668 42.5111 5.828 42.8012 6.11517C43.0913 6.40233 43.2543 6.79181 43.2543 7.19793C43.2543 7.60404 43.0913 7.99352 42.8012 8.28068C42.5111 8.56785 42.1176 8.72918 41.7073 8.72918ZM41.7073 8.72918V16.3854C41.7073 17.8105 41.7073 18.5231 41.5299 19.1008C41.3332 19.7436 40.9794 20.3285 40.4997 20.8035C40.0201 21.2786 39.4295 21.6293 38.7803 21.8244C38.1945 22 37.4746 22 36.0348 22M3.54704 35.2708C3.95734 35.2708 4.35083 35.4322 4.64096 35.7193C4.93108 36.0065 5.09407 36.396 5.09407 36.8021C5.09407 37.2082 4.93108 37.5977 4.64096 37.8848C4.35083 38.172 3.95734 38.3333 3.54704 38.3333C3.13674 38.3333 2.74324 38.172 2.45312 37.8848C2.16299 37.5977 2 37.2082 2 36.8021C2 36.396 2.16299 36.0065 2.45312 35.7193C2.74324 35.4322 3.13674 35.2708 3.54704 35.2708ZM3.54704 35.2708V27.6146C3.54704 26.1895 3.54704 25.477 3.72443 24.8992C3.92111 24.2564 4.27493 23.6716 4.75455 23.1965C5.23416 22.7214 5.82477 22.3707 6.47403 22.1756C7.05984 22 7.77973 22 9.2195 22M9.2195 3.11459C9.2195 3.52071 9.05651 3.91019 8.76638 4.19735C8.47626 4.48452 8.08276 4.64584 7.67247 4.64584C7.26217 4.64584 6.86867 4.48452 6.57855 4.19735C6.28842 3.91019 6.12543 3.52071 6.12543 3.11459C6.12543 2.70848 6.28842 2.319 6.57855 2.03184C6.86867 1.74467 7.26217 1.58334 7.67247 1.58334C8.08276 1.58334 8.47626 1.74467 8.76638 2.03184C9.05651 2.319 9.2195 2.70848 9.2195 3.11459ZM9.2195 3.11459H16.9547C18.3945 3.11459 19.1143 3.11459 19.6981 3.29018C20.3477 3.48504 20.9388 3.83556 21.4188 4.31066C21.8987 4.78576 22.2529 5.37075 22.4498 6.01376C22.6271 6.59155 22.6271 7.30409 22.6271 8.72918M36.0348 40.8854C36.0348 40.4793 36.1978 40.0898 36.4879 39.8027C36.778 39.5155 37.1715 39.3542 37.5818 39.3542C37.9921 39.3542 38.3856 39.5155 38.6757 39.8027C38.9659 40.0898 39.1289 40.4793 39.1289 40.8854C39.1289 41.2915 38.9659 41.681 38.6757 41.9682C38.3856 42.2553 37.9921 42.4167 37.5818 42.4167C37.1715 42.4167 36.778 42.2553 36.4879 41.9682C36.1978 41.681 36.0348 41.2915 36.0348 40.8854ZM36.0348 40.8854H28.2996C26.8598 40.8854 26.1399 40.8854 25.5562 40.7098C24.9068 40.5152 24.3159 40.165 23.8359 39.6902C23.356 39.2155 23.0017 38.6309 22.8045 37.9883C22.6271 37.4085 22.6271 36.6959 22.6271 35.2708" stroke="#0088FE" stroke-width="2.02062" stroke-linejoin="round"/>
<path d="M9.32129 21.9C9.32129 15.6443 9.32129 12.5165 11.285 10.5728C13.2487 8.62912 16.4088 8.62912 22.7289 8.62912C29.0491 8.62912 32.2092 8.62912 34.1729 10.5728C36.1366 12.5165 36.1366 15.6443 36.1366 21.9C36.1366 28.1556 36.1366 31.2835 34.1729 33.2271C32.2092 35.1708 29.0491 35.1708 22.7289 35.1708C16.4088 35.1708 13.2487 35.1708 11.285 33.2271C9.32129 31.2835 9.32129 28.1556 9.32129 21.9Z" stroke="#0088FE" stroke-width="2.02062" stroke-linejoin="round"/>
<path d="M23.6566 27.1042L20.645 17.8738C20.5406 17.5825 20.346 17.3313 20.089 17.1557C19.832 16.9801 19.5257 16.8892 19.2135 16.8958C18.9016 16.8896 18.5957 16.9808 18.3392 17.1563C18.0826 17.3318 17.8884 17.5829 17.784 17.8738L14.7725 27.1042M28.8134 16.8958V27.1042M15.8801 24.0417H22.5468" stroke="#0088FE" stroke-width="2.02062" stroke-linecap="round" stroke-linejoin="round"/>
</svg>
