<svg width="44" height="44" viewBox="0 0 44 44" fill="none" xmlns="http://www.w3.org/2000/svg">
<path d="M13.7952 10V8.4C13.7952 4.86 13.7952 2 20.3596 2H23.6396C30.2041 2 30.2041 4.86 30.2041 8.4V10M13.7952 42H30.2041C38.4485 42 39.9263 38.7778 40.3574 34.86L41.8952 18.86C42.4507 13.98 41.013 10 32.2552 10H11.7441C2.98629 10 1.55073 13.98 2.10406 18.86L3.64184 34.86C4.07295 38.7778 5.55073 42 13.7952 42Z" stroke="#0088FE" stroke-width="2.15488" stroke-linecap="round" stroke-linejoin="round"/>
<path d="M17.1363 24.9578C11.929 24.3835 6.92561 22.6104 2.51855 19.7778M26.963 24.9578C32.1703 24.3835 37.1737 22.6104 41.5808 19.7778M26.443 25.3334C26.443 26.5121 25.9747 27.6426 25.1413 28.4761C24.3078 29.3095 23.1773 29.7778 21.9986 29.7778C20.8198 29.7778 19.6894 29.3095 18.8559 28.4761C18.0224 27.6426 17.5541 26.5121 17.5541 25.3334C17.5541 24.1546 18.0224 23.0242 18.8559 22.1907C19.6894 21.3572 20.8198 20.8889 21.9986 20.8889C23.1773 20.8889 24.3078 21.3572 25.1413 22.1907C25.9747 23.0242 26.443 24.1546 26.443 25.3334Z" stroke="#0088FE" stroke-width="2.15488" stroke-linecap="round" stroke-linejoin="round"/>
</svg>
