<svg width="39" height="40" viewBox="0 0 39 40" fill="none" xmlns="http://www.w3.org/2000/svg">
<path d="M11.5204 40C10.6045 40 9.8326 39.6891 9.20464 39.0675C8.57667 38.4458 8.26341 37.6823 8.26486 36.777C8.2663 35.8716 8.57956 35.1074 9.20464 34.4843C9.8326 33.8641 10.6045 33.5539 11.5204 33.5539C12.4364 33.5539 13.2076 33.8641 13.8341 34.4843C14.4606 35.1046 14.7746 35.8688 14.776 36.777C14.7775 37.6851 14.4635 38.4486 13.8341 39.0675C13.2047 39.6863 12.4335 39.9971 11.5204 40ZM31.8874 40C30.973 40 30.2017 39.6891 29.5738 39.0675C28.9458 38.4458 28.6318 37.6823 28.6318 36.777C28.6318 35.8716 28.9458 35.1074 29.5738 34.4843C30.2017 33.8641 30.973 33.5539 31.8874 33.5539C32.8019 33.5539 33.5738 33.8641 34.2032 34.4843C34.8297 35.106 35.143 35.8702 35.143 36.777C35.143 37.6823 34.8297 38.4458 34.2032 39.0675C33.5753 39.6891 32.8033 40 31.8874 40ZM8.4233 6.44607L14.2161 18.5131H28.6166C28.867 18.5131 29.0891 18.4508 29.2829 18.3262C29.4783 18.2015 29.6454 18.0296 29.7843 17.8105L35.4621 7.60421C35.6284 7.30053 35.6422 7.03194 35.5033 6.79845C35.3629 6.56353 35.1264 6.44607 34.7936 6.44607H8.4233ZM7.36197 4.29738H35.6205C36.5624 4.29738 37.2714 4.67841 37.7475 5.44048C38.225 6.20112 38.2503 6.98539 37.8234 7.79329L31.6205 18.9837C31.3065 19.5065 30.8984 19.9169 30.3964 20.2149C29.8943 20.5128 29.3423 20.6618 28.7403 20.6618H13.2394L10.6024 25.4534C10.3795 25.7843 10.3723 26.1424 10.5807 26.5277C10.789 26.913 11.1023 27.1064 11.5204 27.1079H35.143V29.2565H11.5204C10.2544 29.2565 9.30954 28.728 8.68591 27.6708C8.06229 26.6137 8.04709 25.5522 8.64033 24.4865L11.9046 18.728L3.92407 2.14869H0V0H5.3001L7.36197 4.29738Z" fill="#0088FE"/>
</svg>
