<svg width="20" height="15" viewBox="0 0 20 15" fill="none" xmlns="http://www.w3.org/2000/svg">
<g clip-path="url(#clip0_8786_2465)">
<path d="M0.0332031 0.490234H20.0332V14.4902H0.0332031V0.490234Z" fill="#00008B"/>
<mask id="mask0_8786_2465" style="mask-type:alpha" maskUnits="userSpaceOnUse" x="0" y="0" width="10" height="6">
<path d="M0.0332031 0.490234H9.99937V5.47332H0.0332031V0.490234Z" fill="white"/>
</mask>
<g mask="url(#mask0_8786_2465)">
</g>
<path d="M0.0332031 0.490234L11.961 6.45412L0.0332031 0.490234ZM11.961 0.490234L0.0332031 6.45412L11.961 0.490234Z" fill="black"/>
<path d="M11.961 0.490234L0.0332031 6.45412M0.0332031 0.490234L11.961 6.45412L0.0332031 0.490234Z" stroke="white" stroke-width="2.32821"/>
<path d="M0.0332031 0.490234L11.961 6.45412L0.0332031 0.490234ZM11.961 0.490234L0.0332031 6.45412L11.961 0.490234Z" fill="black"/>
<path d="M11.961 0.490234L0.0332031 6.45412M0.0332031 0.490234L11.961 6.45412L0.0332031 0.490234Z" stroke="#FF0000" stroke-width="1.24172"/>
<path d="M5.99709 0.490234V7.44811V0.490234ZM0.0332031 3.47218H13.9489H0.0332031Z" fill="black"/>
<path d="M0.0332031 3.47218H13.9489M5.99709 0.490234V7.44811V0.490234Z" stroke="white" stroke-width="3.10437"/>
<path d="M5.99709 0.490234V6.87343V0.490234ZM0.0332031 3.47218H12.3803H0.0332031Z" fill="black"/>
<path d="M0.0332031 3.47218H12.3803M5.99709 0.490234V6.87343V0.490234Z" stroke="#FF0000" stroke-width="1.86265"/>
<path d="M0.0332031 6.45412H11.961V0.490234H15.9369V8.44209H0.0332031V6.45412Z" fill="#00008B"/>
<path d="M5.23765 8.29533L5.56204 9.30395L6.55279 8.92872L5.96651 9.81114L6.87764 10.3518L5.82214 10.4436L5.96748 11.4931L5.23765 10.7251L4.50781 11.4931L4.65315 10.4436L3.59766 10.3518L4.50879 9.81114L3.9225 8.92872L4.91325 9.30395L5.23765 8.29533ZM16.452 10.1109L16.6065 10.5912L17.0783 10.4125L16.7991 10.8328L17.233 11.0903L16.7304 11.134L16.7997 11.6337L16.4521 11.268L16.1045 11.6337L16.1738 11.134L15.6712 11.0903L16.105 10.8328L15.8259 10.4125L16.2976 10.5912L16.452 10.1109ZM13.6484 5.67199L13.8029 6.15227L14.2747 5.97358L13.9956 6.39382L14.4294 6.65131L13.9268 6.69504L13.9961 7.19476L13.6484 6.82902L13.3009 7.19468L13.3701 6.69497L12.8675 6.65123L13.3013 6.39375L13.0221 5.97351L13.494 6.15219L13.6484 5.67199ZM16.452 2.63477L16.6065 3.11504L17.0783 2.93636L16.7991 3.35652L17.233 3.614L16.7304 3.65774L16.7997 4.15745L16.4521 3.79179L16.1045 4.15745L16.1738 3.65774L15.6712 3.614L16.105 3.35652L15.8259 2.93636L16.2976 3.11504L16.452 2.63477ZM18.9441 4.92437L19.0985 5.40464L19.5704 5.22596L19.2912 5.6462L19.725 5.90368L19.2224 5.94742L19.2917 6.44713L18.9441 6.08147L18.5965 6.44713L18.6657 5.94742L18.1631 5.90368L18.597 5.6462L18.3178 5.22596L18.7896 5.40464L18.9441 4.92437ZM17.5735 7.1739L17.6955 7.47317L18.0178 7.4968L17.771 7.70538L17.8481 8.01924L17.5735 7.84885L17.2988 8.01924L17.3759 7.70538L17.1291 7.4968L17.4514 7.47317L17.5735 7.1739Z" fill="white"/>
</g>
<defs>
<clipPath id="clip0_8786_2465">
<rect y="0.457031" width="20" height="14" rx="2" fill="white"/>
</clipPath>
</defs>
</svg>
