<svg width="20" height="15" viewBox="0 0 20 15" fill="none" xmlns="http://www.w3.org/2000/svg">
<g clip-path="url(#clip0_8786_2479)">
<path d="M0.0332031 0.473633H19.9655V14.4736H0.0332031V0.473633Z" fill="#FF0000"/>
<path d="M5.01562 0.473633H14.9818V14.4736H5.01562V0.473633Z" fill="white"/>
<path d="M9.99955 4.30957L9.43332 5.264C9.36908 5.36771 9.25394 5.35811 9.13881 5.30015L8.72888 5.1083L9.0344 6.57425C9.09864 6.84205 8.89254 6.84205 8.79079 6.72625L8.0754 6.00248L7.95926 6.37004C7.94587 6.41829 7.88695 6.46899 7.79865 6.45694L6.89398 6.28504L7.13161 7.06571C7.18246 7.23942 7.22218 7.31132 7.08027 7.35717L6.75781 7.49413L8.31508 8.63726C8.37672 8.68052 8.40787 8.75827 8.38596 8.82872L8.24963 9.23293C8.78581 9.17708 9.26628 9.09303 9.80274 9.04128C9.8501 9.03673 9.92939 9.10733 9.92906 9.15693L9.85802 10.6378H10.1187L10.0777 9.16008C10.0773 9.11048 10.1493 9.03668 10.1966 9.04123C10.7331 9.09298 11.2136 9.17703 11.7497 9.23288L11.6134 8.82867C11.5915 8.75822 11.6226 8.68047 11.6843 8.63721L13.2416 7.49403L12.9191 7.35707C12.7772 7.31127 12.8169 7.23932 12.8678 7.06561L13.1054 6.28494L12.2007 6.45684C12.1124 6.46889 12.0535 6.41824 12.0401 6.36994L11.924 6.00238L11.2086 6.7262C11.1068 6.842 10.9007 6.842 10.965 6.5742L11.2705 5.10825L10.8606 5.3001C10.7454 5.35806 10.6303 5.36766 10.5661 5.26395" fill="#FF0000"/>
</g>
<defs>
<clipPath id="clip0_8786_2479">
<rect y="0.44043" width="20" height="14" rx="2" fill="white"/>
</clipPath>
</defs>
</svg>
