<svg width="20" height="15" viewBox="0 0 20 15" fill="none" xmlns="http://www.w3.org/2000/svg">
<g clip-path="url(#clip0_8786_2484)">
<path d="M20 12.7731C20 13.8699 19.129 14.6441 18.0645 14.6441H1.93548C0.870968 14.6441 0 13.8699 0 12.7731V2.96667C0 1.8699 0.870968 1.0957 1.93548 1.0957H18.0645C19.129 1.0957 20 1.8699 20 2.96667V12.7731Z" fill="#29337A"/>
<path d="M1.93555 1.0957H18.0646C19.1291 1.0957 20.0001 1.8699 20.0001 2.96667V12.7731C20.0001 13.8699 18.9678 14.6441 17.9033 14.6441" fill="#1B265B"/>
<path d="M1.93555 1.0957H18.0646C19.1291 1.0957 20.0001 1.8699 20.0001 2.96667V6.57957" fill="#111D49"/>
<path d="M20 12.7412C20 13.838 19.129 14.6445 18.0645 14.6445H1.93548C0.870968 14.6445 0 13.8058 0 12.709" fill="#111D49"/>
<path d="M10.9686 7.8699L17.8395 1.0957H15.904L10.0008 6.99893L4.09759 1.0957H2.16211L9.03308 7.8699L2.16211 14.6441H4.09759L10.0008 8.74086L15.904 14.6441H17.8395L10.9686 7.8699Z" fill="white"/>
<path d="M4.12985 12.709L2.16211 14.6445H4.09759L6.03307 12.709H4.12985Z" fill="#D9ECED"/>
<path d="M13.9688 12.709L15.9042 14.6445H17.8397L15.872 12.709H13.9688Z" fill="#D9ECED"/>
<path d="M16.5815 13.4505L10.9686 7.93441L17.8395 1.0957H15.904L10.0008 6.99893L4.09759 1.0957H2.16211L3.45243 2.32151L16.5815 13.4505Z" fill="#D9ECED"/>
<path d="M20 6.57957H11.2903V1.0957H8.70968V6.57957H0V9.16022H8.70968V14.6441H11.2903V9.16022H20V6.57957Z" fill="white"/>
<path d="M11.2916 12.709H8.71094V14.6445H11.2916V12.709Z" fill="#D9ECED"/>
<path d="M11.2908 1.0957H8.71018V6.57957H8.48438L11.5166 9.16022H20.0005V6.57957H11.2908V1.0957Z" fill="#D9ECED"/>
<path d="M20 7.22474H10.6452H11.0323L17.4516 1.0957H16.8064L10.6452 7.22474V1.0957H9.35484V7.22474L3.12903 1.0957H2.54839L8.70968 7.22474H0V8.51506H8.74194L2.70968 14.6441H3.29032L9.35484 8.51506V14.6441H10.6452V8.57957L16.871 14.6441H17.4516L11.2903 8.51506H20V7.22474Z" fill="#E51D35"/>
<path d="M10.6458 12.709H9.35547V14.6445H10.6458V12.709Z" fill="#AF0026"/>
<path d="M4.61416 12.709L2.71094 14.6445H3.29158L5.22707 12.709H4.61416Z" fill="#AF0026"/>
<path d="M14.9043 12.709L16.872 14.6445H17.4527L15.4849 12.709H14.9043Z" fill="#AF0026"/>
<path d="M11.2262 7.22474L17.4521 1.0957H16.8069L10.6456 7.22474V1.0957H9.35528V7.22474L3.12947 1.0957H2.54883L6.09722 4.61183L13.8392 11.128L11.2908 8.51506H20.0004V7.22474H10.6456H11.2262Z" fill="#AF0026"/>
</g>
<defs>
<clipPath id="clip0_8786_2484">
<rect width="20" height="14" fill="white" transform="translate(0 0.870117)"/>
</clipPath>
</defs>
</svg>
