<svg width="61" height="61" viewBox="0 0 61 61" fill="none" xmlns="http://www.w3.org/2000/svg">
<path d="M17.5455 23.375V32.4432L26.6136 38.2727L35.6818 32.4432V23.375L26.6136 17.5455L17.5455 23.375ZM17.5455 23.375L10.5837 16.7164M46.5533 49.4525L31.0907 35.3942M48.6364 27.9091H35.6818M21.3075 34.8631L10.2443 46.6647M42.983 11.7444L33.4329 21.9293M12.3636 15.6023L7.18182 18.8409L2 15.6023V10.4205L7.18182 7.18182L12.3636 10.4205V15.6023ZM51.2273 10.4205L46.0455 13.6591L40.8636 10.4205V5.23864L46.0455 2L51.2273 5.23864V10.4205ZM12.3636 53.1705L7.18182 56.4091L2 53.1705V47.9886L7.18182 44.75L12.3636 47.9886V53.1705ZM55.1136 55.7614L49.9318 59L44.75 55.7614V50.5795L49.9318 47.3409L55.1136 50.5795V55.7614ZM59 30.5L53.8182 33.7386L48.6364 30.5V25.3182L53.8182 22.0795L59 25.3182V30.5Z" stroke="#0088FE" stroke-width="2.59091" stroke-miterlimit="10" stroke-linecap="round" stroke-linejoin="round"/>
</svg>
