<svg width="56" height="50" viewBox="0 0 56 50" fill="none" xmlns="http://www.w3.org/2000/svg">
<path d="M23.8461 37.7482L19.8741 47.6782M31.7901 37.7482L35.7622 47.6782M15.9021 47.6782H39.7342M29.8041 2V37.7482M11.93 13.9161H19.8741M11.93 25.8321H15.9021M51.6502 2H3.98601C3.45929 2 2.95414 2.20924 2.58169 2.58169C2.20924 2.95414 2 3.45929 2 3.98601V35.7622C2 36.2889 2.20924 36.794 2.58169 37.1665C2.95414 37.5389 3.45929 37.7482 3.98601 37.7482H51.6502C52.177 37.7482 52.6821 37.5389 53.0546 37.1665C53.427 36.794 53.6362 36.2889 53.6362 35.7622V3.98601C53.6362 3.45929 53.427 2.95414 53.0546 2.58169C52.6821 2.20924 52.177 2 51.6502 2Z" stroke="#0088FE" stroke-width="3.01118" stroke-linecap="round" stroke-linejoin="round"/>
<path d="M30.6074 25.1209L35.3136 21.1413C36.7085 19.9603 38.4622 19.3142 40.2727 19.3142C42.0831 19.3142 43.8369 19.9603 45.2317 21.1413L53.944 29.1005" stroke="#0088FE" stroke-width="3.01118" stroke-linecap="round" stroke-linejoin="round"/>
</svg>
