<svg width="68" height="47" viewBox="0 0 68 47" fill="none" xmlns="http://www.w3.org/2000/svg">
<path d="M64.0274 22.5355C61.4067 11.3588 57.5199 4.22933 51.2902 2.49197C50.0836 2.15992 48.8325 1.99428 47.5757 2.00019C43.7458 2.00019 40.7235 4.15006 33.9027 4.15006C27.0819 4.15006 24.0539 2.00019 20.2298 2.00019C18.9205 1.99364 17.6166 2.15915 16.3558 2.49197C10.1175 4.22933 6.2634 11.3656 3.61284 22.5355C0.906733 33.9446 1.39668 42.9592 6.68641 44.6899C10.3895 45.8992 13.7009 43.3986 16.8372 39.7183C20.3978 35.5261 24.7831 34.2361 33.9027 34.2361C43.0223 34.2361 47.2367 35.5261 50.8031 39.7183C53.9365 43.4013 57.3704 45.871 60.9752 44.7114C66.8175 42.8289 66.7349 34.0789 64.0274 22.5355Z" stroke="#0088FE" stroke-width="2.77419" stroke-miterlimit="10"/>
<path d="M39.8822 21.0887C41.4621 21.0887 42.7429 19.808 42.7429 18.228C42.7429 16.6481 41.4621 15.3673 39.8822 15.3673C38.3023 15.3673 37.0215 16.6481 37.0215 18.228C37.0215 19.808 38.3023 21.0887 39.8822 21.0887Z" fill="#0088FE"/>
<path d="M46.1771 27.3824C45.611 27.3824 45.0576 27.2145 44.587 26.8998C44.1164 26.5852 43.7498 26.138 43.5335 25.6148C43.3172 25.0917 43.2609 24.5161 43.3719 23.961C43.4829 23.4059 43.756 22.8962 44.1568 22.4964C44.5576 22.0966 45.068 21.8247 45.6234 21.7151C46.1788 21.6055 46.7542 21.6632 47.2768 21.8808C47.7994 22.0984 48.2457 22.4662 48.5592 22.9376C48.8727 23.409 49.0392 23.9628 49.0378 24.5289C49.0359 25.2863 48.7337 26.0121 48.1974 26.5471C47.6611 27.082 46.9346 27.3824 46.1771 27.3824Z" fill="#0088FE"/>
<path d="M46.1771 14.7948C47.7571 14.7948 49.0378 13.514 49.0378 11.9341C49.0378 10.3541 47.7571 9.07336 46.1771 9.07336C44.5972 9.07336 43.3164 10.3541 43.3164 11.9341C43.3164 13.514 44.5972 14.7948 46.1771 14.7948Z" fill="#0088FE"/>
<path d="M52.4701 21.0887C54.05 21.0887 55.3308 19.808 55.3308 18.228C55.3308 16.6481 54.05 15.3673 52.4701 15.3673C50.8902 15.3673 49.6094 16.6481 49.6094 18.228C49.6094 19.808 50.8902 21.0887 52.4701 21.0887Z" fill="#0088FE"/>
<path d="M21.0024 11.3623V25.0937M27.8681 18.228H14.1367" stroke="#0088FE" stroke-width="4.57714" stroke-linecap="round" stroke-linejoin="round"/>
</svg>
