<svg width="69" height="54" viewBox="0 0 69 54" fill="none" xmlns="http://www.w3.org/2000/svg">
<path d="M67.2607 51.6522H61.3911V16.4348H62.565C62.8764 16.4348 63.175 16.3111 63.3951 16.091C63.6153 15.8708 63.739 15.5722 63.739 15.2609C63.739 14.9495 63.6153 14.6509 63.3951 14.4308C63.175 14.2106 62.8764 14.087 62.565 14.087H47.3042V2.34783H48.4781C48.7894 2.34783 49.088 2.22415 49.3082 2.00399C49.5283 1.78384 49.652 1.48525 49.652 1.17391C49.652 0.862572 49.5283 0.563983 49.3082 0.343831C49.088 0.12368 48.7894 0 48.4781 0H6.21722C5.90588 0 5.60729 0.12368 5.38714 0.343831C5.16699 0.563983 5.04331 0.862572 5.04331 1.17391C5.04331 1.48525 5.16699 1.78384 5.38714 2.00399C5.60729 2.22415 5.90588 2.34783 6.21722 2.34783H7.39113V51.6522H1.52157C1.21023 51.6522 0.911639 51.7759 0.691488 51.996C0.471336 52.2162 0.347656 52.5147 0.347656 52.8261C0.347656 53.1374 0.471336 53.436 0.691488 53.6562C0.911639 53.8763 1.21023 54 1.52157 54H67.2607C67.572 54 67.8706 53.8763 68.0908 53.6562C68.3109 53.436 68.4346 53.1374 68.4346 52.8261C68.4346 52.5147 68.3109 52.2162 68.0908 51.996C67.8706 51.7759 67.572 51.6522 67.2607 51.6522ZM59.0433 16.4348V51.6522H47.3042V16.4348H59.0433ZM9.73896 2.34783H44.9564V51.6522H35.565V36.3913C35.565 36.08 35.4414 35.7814 35.2212 35.5612C35.0011 35.3411 34.7025 35.2174 34.3911 35.2174H20.3042C19.9928 35.2174 19.6942 35.3411 19.4741 35.5612C19.2539 35.7814 19.1303 36.08 19.1303 36.3913V51.6522H9.73896V2.34783ZM33.2172 51.6522H21.4781V37.5652H33.2172V51.6522ZM16.7824 12.913C16.7824 12.6017 16.9061 12.3031 17.1263 12.083C17.3464 11.8628 17.645 11.7391 17.9564 11.7391H22.652C22.9633 11.7391 23.2619 11.8628 23.4821 12.083C23.7022 12.3031 23.8259 12.6017 23.8259 12.913C23.8259 13.2244 23.7022 13.523 23.4821 13.7431C23.2619 13.9633 22.9633 14.087 22.652 14.087H17.9564C17.645 14.087 17.3464 13.9633 17.1263 13.7431C16.9061 13.523 16.7824 13.2244 16.7824 12.913ZM30.8694 12.913C30.8694 12.6017 30.9931 12.3031 31.2132 12.083C31.4334 11.8628 31.732 11.7391 32.0433 11.7391H36.739C37.0503 11.7391 37.3489 11.8628 37.569 12.083C37.7892 12.3031 37.9129 12.6017 37.9129 12.913C37.9129 13.2244 37.7892 13.523 37.569 13.7431C37.3489 13.9633 37.0503 14.087 36.739 14.087H32.0433C31.732 14.087 31.4334 13.9633 31.2132 13.7431C30.9931 13.523 30.8694 13.2244 30.8694 12.913ZM17.9564 25.8261C17.645 25.8261 17.3464 25.7024 17.1263 25.4823C16.9061 25.2621 16.7824 24.9635 16.7824 24.6522C16.7824 24.3408 16.9061 24.0422 17.1263 23.8221C17.3464 23.6019 17.645 23.4783 17.9564 23.4783H22.652C22.9633 23.4783 23.2619 23.6019 23.4821 23.8221C23.7022 24.0422 23.8259 24.3408 23.8259 24.6522C23.8259 24.9635 23.7022 25.2621 23.4821 25.4823C23.2619 25.7024 22.9633 25.8261 22.652 25.8261H17.9564ZM30.8694 24.6522C30.8694 24.3408 30.9931 24.0422 31.2132 23.8221C31.4334 23.6019 31.732 23.4783 32.0433 23.4783H36.739C37.0503 23.4783 37.3489 23.6019 37.569 23.8221C37.7892 24.0422 37.9129 24.3408 37.9129 24.6522C37.9129 24.9635 37.7892 25.2621 37.569 25.4823C37.3489 25.7024 37.0503 25.8261 36.739 25.8261H32.0433C31.732 25.8261 31.4334 25.7024 31.2132 25.4823C30.9931 25.2621 30.8694 24.9635 30.8694 24.6522Z" fill="#0088FE"/>
</svg>
