<svg width="20" height="20" viewBox="0 0 20 20" fill="none" xmlns="http://www.w3.org/2000/svg">
<path d="M17 16C17.55 16 18 16.45 18 17C18 17.55 17.55 18 17 18H3C2.45 18 2 17.55 2 17C2 16.45 2.45 16 3 16H17ZM17 14H3C1.346 14 0 15.346 0 17C0 18.654 1.346 20 3 20H17C18.654 20 20 18.654 20 17C20 15.346 18.654 14 17 14ZM17 9C17.55 9 18 9.45 18 10C18 10.55 17.55 11 17 11H3C2.45 11 2 10.55 2 10C2 9.45 2.45 9 3 9H17ZM17 7H3C1.346 7 0 8.346 0 10C0 11.654 1.346 13 3 13H17C18.654 13 20 11.654 20 10C20 8.346 18.654 7 17 7ZM17 2C17.55 2 18 2.45 18 3C18 3.55 17.55 4 17 4H3C2.45 4 2 3.55 2 3C2 2.45 2.45 2 3 2H17ZM17 0H3C1.346 0 0 1.346 0 3C0 4.654 1.346 6 3 6H17C18.654 6 20 4.654 20 3C20 1.346 18.654 0 17 0Z" fill="white"/>
</svg>
