<svg width="33" height="33" viewBox="0 0 33 33" fill="none" xmlns="http://www.w3.org/2000/svg">
<path d="M30.3291 26.3768H2.67102C1.96461 26.3768 1.68359 25.936 1.68359 25.3894V7.61065C1.68359 7.06409 2.12445 6.62323 2.67102 6.62323H30.3266C30.8731 6.62323 31.314 7.06409 31.314 7.61065V25.3894C31.3145 25.519 31.2894 25.6474 31.2401 25.7673C31.1908 25.8871 31.1183 25.9961 31.0268 26.0878C30.9353 26.1796 30.8266 26.2524 30.7068 26.302C30.5871 26.3516 30.4587 26.377 30.3291 26.3768Z" fill="white"/>
<path d="M31.1795 7.2497C31.1168 7.17446 31.0268 7.12709 30.9292 7.11792C30.8317 7.10874 30.7345 7.1385 30.6588 7.20072L21.1996 15.162V16.7991L22.1716 15.9148L30.486 25.8999C30.6588 26.0674 30.8057 26.1319 30.9578 26.021C31.0532 25.9514 31.0326 25.8199 30.8934 25.6678L23.2699 14.917L31.1331 7.77048C31.2878 7.64158 31.311 7.40697 31.1795 7.2497ZM12.1272 15.4352L2.34063 7.20072C2.30329 7.16959 2.26016 7.14615 2.21372 7.13176C2.16728 7.11737 2.11845 7.1123 2.07005 7.11685C2.02165 7.12141 1.97462 7.13549 1.93168 7.15829C1.88874 7.18109 1.85074 7.21216 1.81985 7.2497C1.68837 7.40697 1.71157 7.64158 1.86884 7.77048L9.73212 14.917L2.10602 25.6704C1.96938 25.8225 1.94876 25.954 2.04157 26.0236C2.19368 26.1345 2.34063 26.07 2.51337 25.9024L10.8278 15.9148L12.1272 17.0956V15.4352Z" fill="#6FBFF0" stroke="#6FBFF0" stroke-width="0.125" stroke-miterlimit="10"/>
<path d="M30.3291 26.3768H2.67102C1.96461 26.3768 1.68359 25.936 1.68359 25.3894V7.61065C1.68359 7.06409 2.12445 6.62323 2.67102 6.62323H30.3266C30.8731 6.62323 31.314 7.06409 31.314 7.61065V25.3894C31.3145 25.519 31.2894 25.6474 31.2401 25.7673C31.1908 25.8871 31.1183 25.9961 31.0268 26.0878C30.9353 26.1796 30.8266 26.2524 30.7068 26.302C30.5871 26.3516 30.4587 26.377 30.3291 26.3768Z" stroke="#6FBFF0" stroke-miterlimit="10"/>
<path d="M13.2822 10.8178L19.8564 10.2274H20.2225C20.2973 10.2274 20.3695 10.2609 20.4159 10.3202L20.7897 10.7972C20.8026 10.8143 20.8098 10.8351 20.8103 10.8565V12.8726C20.8103 12.9267 20.7665 12.9705 20.7123 12.9705H15.5561C15.5301 12.9705 15.5052 12.9809 15.4868 12.9992C15.4684 13.0176 15.4581 13.0425 15.4581 13.0685V15.6441C15.4581 15.7034 15.5097 15.7472 15.569 15.7394L19.498 15.1594H19.6708C19.7533 15.1594 19.8306 15.198 19.8796 15.2599L20.2483 15.7291C20.2612 15.7463 20.2684 15.767 20.2689 15.7884V17.8045C20.2689 17.8587 20.2251 17.9025 20.1709 17.9025H15.5587C15.5327 17.9025 15.5078 17.9128 15.4894 17.9312C15.471 17.9496 15.4607 17.9745 15.4607 18.0005V20.5734C15.4607 20.6327 15.5148 20.6791 15.5741 20.6688L18.9592 20.0913C18.9644 20.0913 18.9695 20.0887 18.9747 20.0887H20.2122C20.2947 20.0887 20.372 20.1274 20.4236 20.1919L20.7897 20.6611C20.8026 20.6782 20.8098 20.699 20.8103 20.7204V22.7365C20.8103 22.7906 20.7665 22.8344 20.7123 22.8344H13.2461C13.2313 22.8345 13.2168 22.8313 13.2034 22.825C13.19 22.8188 13.1782 22.8097 13.1688 22.7984L12.7511 22.2647C12.7378 22.2458 12.7306 22.2233 12.7305 22.2002L13.1945 10.9132C13.1971 10.8616 13.2358 10.8204 13.2822 10.8178Z" fill="#0D47A1"/>
<path d="M12.9006 10.2274H20.1735C20.2689 10.2274 20.3437 10.3048 20.3437 10.3976V12.2023C20.3437 12.2977 20.2663 12.3724 20.1735 12.3724H15.1642C15.0688 12.3724 14.9941 12.4498 14.9941 12.5426V14.9841C14.9941 15.0794 15.0714 15.1542 15.1642 15.1542H19.6347C19.7301 15.1542 19.8048 15.2316 19.8048 15.3244V17.1291C19.8048 17.2244 19.7275 17.2992 19.6347 17.2992H15.1642C15.0688 17.2992 14.9941 17.3766 14.9941 17.4694V19.9109C14.9941 20.0062 15.0714 20.081 15.1642 20.081H20.1735C20.2689 20.081 20.3437 20.1584 20.3437 20.2512V22.0559C20.3437 22.1512 20.2663 22.226 20.1735 22.226H12.9006C12.8555 22.226 12.8122 22.2081 12.7803 22.1762C12.7484 22.1443 12.7305 22.101 12.7305 22.0559V10.3976C12.7305 10.3022 12.8078 10.2274 12.9006 10.2274Z" fill="#2196F3"/>
</svg>
