<svg width="18" height="19" viewBox="0 0 18 19" fill="none" xmlns="http://www.w3.org/2000/svg">
<g clip-path="url(#clip0_2280_368)">
<path d="M0.404716 9.42197C0.404241 10.9356 0.802784 12.4133 1.56047 13.7158L0.332031 18.1662L4.92211 16.9721C6.18682 17.6563 7.61077 18.017 9.05971 18.0176H9.06344C13.8354 18.0176 17.72 14.1643 17.722 9.42885C17.7228 7.13391 16.8229 4.97586 15.1883 3.35246C13.5534 1.72926 11.3796 0.834684 9.06344 0.83374C4.2907 0.83374 0.406618 4.6865 0.404716 9.42197ZM3.13827 13.4915L2.96689 13.2216C2.24643 12.0849 1.86616 10.7713 1.8667 9.42251C1.86819 5.48651 5.09648 2.28426 9.06616 2.28426C10.9886 2.28506 12.7952 3.02865 14.1541 4.3778C15.5129 5.72707 16.2606 7.52067 16.2601 9.42831C16.2584 13.3643 13.03 16.567 9.06344 16.567H9.06059C7.76904 16.5663 6.50236 16.2221 5.39768 15.5718L5.1348 15.4171L2.41095 16.1257L3.13827 13.4915Z" fill="url(#paint0_linear_2280_368)"/>
<mask id="path-2-inside-1_2280_368" fill="white">
<path d="M0.70278 9.39628C0.702372 10.8526 1.08713 12.2745 1.81873 13.5278L0.632812 17.81L5.064 16.661C6.28962 17.3208 7.66282 17.6665 9.05827 17.6666H9.06194C13.6686 17.6666 17.4185 13.9594 17.4205 9.4028C17.4214 7.19479 16.5527 5.11851 14.9744 3.55644C13.3964 1.9945 11.2977 1.13385 9.0616 1.13284C4.4544 1.13284 0.70475 4.83985 0.702848 9.39628"/>
</mask>
<path d="M0.70278 9.39628C0.702372 10.8526 1.08713 12.2745 1.81873 13.5278L0.632812 17.81L5.064 16.661C6.28962 17.3208 7.66282 17.6665 9.05827 17.6666H9.06194C13.6686 17.6666 17.4185 13.9594 17.4205 9.4028C17.4214 7.19479 16.5527 5.11851 14.9744 3.55644C13.3964 1.9945 11.2977 1.13385 9.0616 1.13284C4.4544 1.13284 0.70475 4.83985 0.702848 9.39628" fill="url(#paint1_linear_2280_368)"/>
<path d="M1.81873 13.5278L2.5495 13.7302L2.63489 13.4218L2.4736 13.1455L1.81873 13.5278ZM0.632812 17.81L-0.0979558 17.6076L-0.448606 18.8738L0.823145 18.544L0.632812 17.81ZM5.064 16.661L5.42345 15.9933L5.16157 15.8523L4.87367 15.927L5.064 16.661ZM9.05827 17.6666L9.05821 18.4249H9.05827V17.6666ZM17.4205 9.4028L18.1788 9.40313V9.4031L17.4205 9.4028ZM14.9744 3.55644L14.441 4.09536L14.441 4.09538L14.9744 3.55644ZM9.0616 1.13284L9.06194 0.374569H9.0616V1.13284ZM0.70278 9.39628L-0.0554941 9.39607C-0.0559393 10.9866 0.364437 12.5406 1.16386 13.9101L1.81873 13.5278L2.4736 13.1455C1.80982 12.0084 1.46068 10.7185 1.46105 9.3965L0.70278 9.39628ZM1.81873 13.5278L1.08796 13.3254L-0.0979558 17.6076L0.632812 17.81L1.36358 18.0124L2.5495 13.7302L1.81873 13.5278ZM0.632812 17.81L0.823145 18.544L5.25434 17.395L5.064 16.661L4.87367 15.927L0.44248 17.076L0.632812 17.81ZM5.064 16.661L4.70455 17.3286C6.04091 18.0481 7.53764 18.4248 9.05821 18.4249L9.05827 17.6666L9.05832 16.9084C7.78799 16.9083 6.53832 16.5935 5.42345 15.9933L5.064 16.661ZM9.05827 17.6666V18.4249H9.06194V17.6666V16.9084H9.05827V17.6666ZM9.06194 17.6666V18.4249C14.0794 18.4249 18.1766 14.3862 18.1788 9.40313L17.4205 9.4028L16.6622 9.40247C16.6604 13.5326 13.2578 16.9084 9.06194 16.9084V17.6666ZM17.4205 9.4028L18.1788 9.4031C18.1797 6.99123 17.2291 4.72116 15.5078 3.0175L14.9744 3.55644L14.441 4.09538C15.8762 5.51587 16.663 7.39834 16.6622 9.4025L17.4205 9.4028ZM14.9744 3.55644L15.5078 3.01752C13.7869 1.31412 11.4962 0.375666 9.06194 0.374569L9.0616 1.13284L9.06126 1.89112C11.0992 1.89204 13.0059 2.67487 14.441 4.09536L14.9744 3.55644ZM9.0616 1.13284V0.374569C4.04366 0.374569 -0.053346 4.413 -0.0554261 9.39597L0.702848 9.39628L1.46112 9.3966C1.46285 5.2667 4.86515 1.89112 9.0616 1.89112V1.13284Z" fill="white" mask="url(#path-2-inside-1_2280_368)"/>
<path d="M6.89768 5.81501C6.7356 5.45875 6.56502 5.45156 6.41089 5.44532C6.28468 5.43994 6.1404 5.44035 5.99625 5.44035C5.85197 5.44035 5.61754 5.49402 5.41939 5.70799C5.22103 5.92216 4.66211 6.43972 4.66211 7.49237C4.66211 8.54501 5.43739 9.56239 5.54547 9.70528C5.65368 9.84791 7.04216 12.0772 9.24118 12.9348C11.0688 13.6476 11.4407 13.5058 11.8373 13.4701C12.234 13.4345 13.1174 12.9526 13.2976 12.453C13.478 11.9535 13.478 11.5253 13.4239 11.4358C13.3698 11.3466 13.2255 11.2931 13.0092 11.1861C12.7928 11.0792 11.7291 10.5615 11.5308 10.4901C11.3325 10.4187 11.1883 10.3831 11.044 10.5974C10.8997 10.8113 10.4854 11.2931 10.3591 11.4358C10.233 11.5788 10.1067 11.5966 9.89039 11.4896C9.67389 11.3822 8.97714 11.1566 8.1505 10.4277C7.50734 9.8606 7.07314 9.16025 6.94692 8.94601C6.82071 8.73211 6.93341 8.61616 7.04189 8.50954C7.1391 8.41368 7.25831 8.2597 7.36659 8.13481C7.47447 8.00986 7.51047 7.92071 7.58261 7.77802C7.65482 7.63519 7.61868 7.51024 7.56468 7.40322C7.51047 7.2962 7.09005 6.23804 6.89768 5.81501Z" fill="white"/>
</g>
<defs>
<linearGradient id="paint0_linear_2280_368" x1="869.832" y1="1734.08" x2="869.832" y2="0.83374" gradientUnits="userSpaceOnUse">
<stop stop-color="#F9F9F9"/>
<stop offset="1" stop-color="white"/>
</linearGradient>
<linearGradient id="paint1_linear_2280_368" x1="840.016" y1="1668.85" x2="840.016" y2="1.13284" gradientUnits="userSpaceOnUse">
<stop stop-color="#1FAF38"/>
<stop offset="1" stop-color="#60D669"/>
</linearGradient>
<clipPath id="clip0_2280_368">
<rect width="17.2552" height="17.3325" fill="white" transform="translate(0.332031 0.83374)"/>
</clipPath>
</defs>
</svg>
